Input #0, mov,mp4,m4a,3gp,3g2,mj2, from '/home/hbattu/projects/huberman-gpt/huberman-audio/mp3/tmpjdts386w.mp4':
  Metadata:
    major_brand     : dash
    minor_version   : 0
    compatible_brands: iso6mp41
    creation_time   : 2021-05-19T21:44:33.000000Z
  Duration: 01:52:14.37, start: 0.000000, bitrate: 129 kb/s
    Stream #0:0(und): Audio: aac (LC) (mp4a / 0x6134706D), 44100 Hz, stereo, fltp, 0 kb/s (default)
    Metadata:
      creation_time   : 2021-05-19T21:44:33.000000Z
      handler_name    : ISO Media file produced by Google Inc.
Stream mapping:
  Stream #0:0 -> #0:0 (aac (native) -> mp3 (libmp3lame))
Press [q] to stop, [?] for help
[graph_0_in_0_0 @ 0x5618f415df80] tb:1/44100 samplefmt:fltp samplerate:44100 chlayout:0x3
Output #0, mp3, to '../huberman-audio/mp3/xJ0IBzCjEPk.mp3':
  Metadata:
    major_brand     : dash
    minor_version   : 0
    compatible_brands: iso6mp41
    TSSE            : Lavf58.29.100
    Stream #0:0(und): Audio: mp3 (libmp3lame), 44100 Hz, stereo, fltp, delay 1105 (default)
    Metadata:
      creation_time   : 2021-05-19T21:44:33.000000Z
      handler_name    : ISO Media file produced by Google Inc.
      encoder         : Lavc58.54.100 libmp3lame
No more output streams to write to, finishing.
size=  105225kB time=01:52:14.36 bitrate= 128.0kbits/s speed=80.3x    
[AVIOContext @ 0x5618f404f900] Statistics: 0 seeks, 168 writeouts
video:0kB audio:105225kB subtitle:0kB other streams:0kB global headers:0kB muxing overhead: 0.000321%
Input file #0 (/home/hbattu/projects/huberman-gpt/huberman-audio/mp3/tmpjdts386w.mp4):
  Input stream #0:0 (audio): 290025 packets read (107749877 bytes); 290025 frames decoded (296985600 samples); 
  Total: 290025 packets (107749877 bytes) demuxed
Output file #0 (../huberman-audio/mp3/xJ0IBzCjEPk.mp3):
  Output stream #0:0 (audio): 257800 frames encoded (296985600 samples); 257801 packets muxed (107750295 bytes); 
  Total: 257801 packets (107750295 bytes) muxed
[AVIOContext @ 0x5618f4079300] Statistics: 2 seeks, 413 writeouts
[AVIOContext @ 0x5618f4058880] Statistics: 108988941 bytes read, 0 seeks
